<svg xmlns="http://www.w3.org/2000/svg" viewBox="0 0 48 48"><title>notepad</title><g id="notepad"><path d="M39,2H35V1a1,1,0,0,0-2,0V2H31V1a1,1,0,0,0-2,0V2H27V1a1,1,0,0,0-2,0V2H23V1a1,1,0,0,0-2,0V2H19V1a1,1,0,0,0-2,0V2H15V1a1,1,0,0,0-2,0V2H9A1,1,0,0,0,8,3V47a1,1,0,0,0,1,1H39a1,1,0,0,0,1-1V3A1,1,0,0,0,39,2ZM13,4V5a1,1,0,0,0,2,0V4h2V5a1,1,0,0,0,2,0V4h2V5a1,1,0,0,0,2,0V4h2V5a1,1,0,0,0,2,0V4h2V5a1,1,0,0,0,2,0V4h2V5a1,1,0,0,0,2,0V4h3V8H10V4ZM10,46V10H38V46Z"/><path d="M34,14H14a1,1,0,0,0,0,2H34A1,1,0,0,0,34,14Z"/><path d="M34,19H14a1,1,0,0,0,0,2H34A1,1,0,0,0,34,19Z"/><path d="M34,24H14a1,1,0,0,0,0,2H34A1,1,0,0,0,34,24Z"/><path d="M34,29H14a1,1,0,0,0,0,2H34A1,1,0,0,0,34,29Z"/><path d="M34,34H14a1,1,0,0,0,0,2H34A1,1,0,0,0,34,34Z"/><path d="M34,39H14a1,1,0,0,0,0,2H34A1,1,0,0,0,34,39Z"/></g></svg>